<?xml version="1.0" encoding="utf-8"?>
<!DOCTYPE svg PUBLIC "-//W3C//DTD SVG 1.1//EN" "http://www.w3.org/Graphics/SVG/1.1/DTD/svg11.dtd">
<svg version="1.1" xmlns="http://www.w3.org/2000/svg" xmlns:xlink="http://www.w3.org/1999/xlink" x="0px" y="0px" viewBox="0 0 256 256" enable-background="new 0 0 256 256" xml:space="preserve">
<metadata> Svg Vector Icons : http://www.onlinewebfonts.com/icon </metadata>
<g><g><path fill="#000000" d="M95.9,168.2h64.4c5.9,0,10.7-4.8,10.7-10.7v-10.7c0-5.9-4.8-10.7-10.7-10.7H95.9c-5.9,0-10.7,4.8-10.7,10.7v10.7C85.1,163.4,89.9,168.2,95.9,168.2 M95.9,146.8h64.4v10.7H95.9V146.8z M235.4,71.7h-21.2l-6.6-24.4c-3.1-11.4-14.8-18.2-26.3-15.2l-32.9,8.8l-44-25.4c-10.3-5.9-23.4-2.4-29.3,7.9L47.3,71.7H20.7c-5.9,0-10.7,4.8-10.7,10.7v21.5c0,5.9,4.8,10.7,10.7,10.7h10.7v118c0,5.9,4.8,10.7,10.7,10.7h171.7c5.9,0,10.7-4.8,10.7-10.7v-118h10.7c5.9,0,10.7-4.8,10.7-10.7V82.4C246.1,76.5,241.3,71.7,235.4,71.7 M184.1,42.5c5.7-1.5,11.6,1.9,13.2,7.6l5.8,21.6h-1.3l-13.8-7.9l1.7-0.5l-2.8-10.4l-10.4,2.8l0.5,1.8l-13.2-7.6l-0.5-1.8L184.1,42.5z M180.2,71.7h-71L127,40.9L180.2,71.7z M84.4,28.8c3-5.1,9.5-6.9,14.7-3.9l18.6,10.7L96.8,71.7H72.9l-0.7-0.4l-0.2,0.4H59.7L84.4,28.8z M213.9,232.6H42.2v-118h171.7L213.9,232.6L213.9,232.6z M235.4,103.9H20.7V82.4h214.6L235.4,103.9L235.4,103.9z M103,39.5l-9.3-5.4l-5.4,9.3l9.3,5.4L103,39.5z M92.3,58.1L83,52.7L77.6,62l9.3,5.4L92.3,58.1z"/></g></g>
</svg>